<svg width="306" height="125" xmlns="http://www.w3.org/2000/svg" xmlns:xlink="http://www.w3.org/1999/xlink" overflow="hidden"><defs><clipPath id="clip0"><path d="M318 193 624 193 624 318 318 318Z" fill-rule="evenodd" clip-rule="evenodd"/></clipPath></defs><g clip-path="url(#clip0)" transform="translate(-318 -193)"><path d="M322 260 471.5 204 621 260 471.5 316Z" stroke="#FFFFFF" stroke-width="2" stroke-miterlimit="8" fill="#4472C4" fill-rule="evenodd"/><path d="M471 248 539 223 607 248 539 273Z" stroke="#FFFFFF" stroke-width="2" stroke-miterlimit="8" fill="#ED7D31" fill-rule="evenodd"/><path d="M329 248 396.5 223 464 248 396.5 273Z" stroke="#FFFFFF" stroke-width="2" stroke-miterlimit="8" fill="#ED7D31" fill-rule="evenodd"/><path d="M520 236.5 558.5 223 597 236.5 558.5 250Z" stroke="#FFFFFF" stroke-width="2" stroke-miterlimit="8" fill="#70AD47" fill-rule="evenodd"/><path d="M342 236.5 380.5 223 419 236.5 380.5 250Z" stroke="#FFFFFF" stroke-width="2" stroke-miterlimit="8" fill="#70AD47" fill-rule="evenodd"/><path d="M433 211.5 471.5 198 510 211.5 471.5 225Z" stroke="#FFFFFF" stroke-width="2" stroke-miterlimit="8" fill="#ED7D31" fill-rule="evenodd"/><path d="M452 200 471.5 195 491 200 471.5 205Z" stroke="#FFFFFF" stroke-width="2" stroke-miterlimit="8" fill="#A5A5A5" fill-rule="evenodd"/></g></svg>